<svg width="77" height="24" fill="none" xmlns="http://www.w3.org/2000/svg"><g clip-path="url(#clip0)" fill="#00284B"><path d="M22.051.025v1.773h-2.994v8.287H17.24V1.798h-3.01V.025h7.82zm7.986 5.726v4.333H28.29V6.099c0-1.03-.527-1.65-1.539-1.65-.873 0-1.636.741-1.636 1.984v3.65h-1.747V.024h1.747v3.41c.375-.439 1.11-.742 1.997-.742 1.719 0 2.925 1.166 2.925 3.06zm8.305 2.151c-.513 1.454-1.816 2.378-3.244 2.378-2.052 0-3.563-1.62-3.563-3.802 0-2.152 1.442-3.787 3.493-3.787 2.039 0 3.425 1.636 3.425 3.757 0 .242.014.424-.028.666h-5.074c.18.864.873 1.41 1.747 1.41.555 0 1.04-.182 1.358-.622h1.886zM36.595 5.69c-.11-.848-.748-1.364-1.567-1.364-.79 0-1.524.53-1.636 1.364h3.203zM24.024 23.803h-1.927l-.901-2.227h-4.201l-.901 2.227h-1.858l4.007-10.06h1.774l4.007 10.06zm-6.308-4h2.759l-1.373-3.423-1.386 3.424zm9.054-3.318v.864c.29-.484.846-.864 1.733-.864h.804v1.829h-.818c-1.123 0-1.72.838-1.72 1.99v3.5h-1.746v-7.32h1.747zm8.387 4.955h1.775c-.485 1.575-1.76 2.56-3.244 2.56-1.997 0-3.508-1.621-3.508-3.803 0-2.181 1.511-3.787 3.508-3.787 1.483 0 2.759.985 3.244 2.56h-1.775c-.319-.56-.873-.803-1.47-.803-1.053 0-1.76.818-1.76 2.03 0 1.212.707 2.046 1.76 2.046.597 0 1.152-.243 1.47-.803zm10.011-1.97v4.333H43.42V19.82c0-1.03-.527-1.652-1.54-1.652-.873 0-1.635.743-1.635 1.985v3.651h-1.747V13.668h1.747v3.484c.374-.44 1.109-.742 1.996-.742 1.72 0 2.926 1.167 2.926 3.06zm1.816-6.105h1.913v2.076h-1.913v-2.076zm1.83 3.12v7.318h-1.747v-7.318h1.747zm4.353-1.499v1.498h1.997v1.79h-1.997v2.968c0 .53.222.894.763.894h1.234v1.667h-1.248c-1.65 0-2.495-.924-2.495-2.258v-3.272h-1.207v-1.789h1.207v-1.498h1.746zm9.83 6.635C62.484 23.076 61.18 24 59.752 24c-2.051 0-3.563-1.621-3.563-3.803 0-2.151 1.442-3.787 3.494-3.787 2.038 0 3.425 1.636 3.425 3.757 0 .243.014.425-.028.667h-5.074c.18.864.873 1.409 1.746 1.409.555 0 1.04-.182 1.359-.622h1.886zM61.25 19.41c-.11-.849-.749-1.364-1.567-1.364-.79 0-1.525.53-1.636 1.364h3.203zm8.083 2.03h1.775c-.486 1.575-1.761 2.56-3.245 2.56-1.996 0-3.507-1.621-3.507-3.803 0-2.181 1.51-3.787 3.507-3.787 1.484 0 2.76.985 3.245 2.56h-1.775c-.32-.56-.873-.803-1.47-.803-1.053 0-1.76.818-1.76 2.03 0 1.212.706 2.046 1.76 2.046.597 0 1.15-.243 1.47-.803zm5.671-6.454v1.498H77v1.79h-1.996v2.968c0 .53.221.894.762.894H77v1.667h-1.248c-1.65 0-2.495-.924-2.495-2.258v-3.272h-1.206v-1.789h1.206v-1.498h1.746zm-63.287-3.097L5.86 0 0 11.889l5.859 11.892 5.858-11.892z"/></g><defs><clipPath id="clip0"><path fill="#fff" d="M0 0h77v24H0z"/></clipPath></defs></svg>